PathFileType	4	(X/Y/Z)	Walk10.trc
DataRate	CameraRate	NumFrames	NumMarkers	Units	OrigDataRate	OrigDataStartFrame	OrigNumFrames
200.000000	200.000000	5	68	mm	200.000000	438	783
Frame#	Times		LToe		LowerBodyModelVer		LBHD		LWRR		LElbow		RMT1		LACR1		RMT5		RToe		LUA1		RTB2		LWRU		RCAL		LCAR		RTB3		RTB4		RFA1		LMT5		RWRU		RMMAL		C7		LASI		RLFC		LTB2		LPSI		LLFC		LMMAL		RElbowM		LTH3		RASI		RPSI		LHJC		MidPelvis		OPelvis		PELOrigin		RHJC		SACR		XPelvis		YPelvis		ZPelvis		LCAL		RElbow		LFHD		RTH3		RCAR		STRN		RBHD		LMT1		RMFC		RKJC		LLMAL		RWRR		RLMAL		RUA1		RFHD		RBack		LMFC		LKJC		LTH4		RTH1		LTH1		LTH2		LTB1		LTB4		LTB3		RTH4		RTB1		RTH2
			X1	Y1	Z1	X2	Y2	Z2	X3	Y3	Z3	X4	Y4	Z4	X5	Y5	Z5	X6	Y6	Z6	X7	Y7	Z7	X8	Y8	Z8	X9	Y9	Z9	X10	Y10	Z10	X11	Y11	Z11	X12	Y12	Z12	X13	Y13	Z13	X14	Y14	Z14	X15	Y15	Z15	X16	Y16	Z16	X17	Y17	Z17	X18	Y18	Z18	X19	Y19	Z19	X20	Y20	Z20	X21	Y21	Z21	X22	Y22	Z22	X23	Y23	Z23	X24	Y24	Z24	X25	Y25	Z25	X26	Y26	Z26	X27	Y27	Z27	X28	Y28	Z28	X29	Y29	Z29	X30	Y30	Z30	X31	Y31	Z31	X32	Y32	Z32	X33	Y33	Z33	X34	Y34	Z34	X35	Y35	Z35	X36	Y36	Z36	X37	Y37	Z37	X38	Y38	Z38	X39	Y39	Z39	X40	Y40	Z40	X41	Y41	Z41	X42	Y42	Z42	X43	Y43	Z43	X44	Y44	Z44	X45	Y45	Z45	X46	Y46	Z46	X47	Y47	Z47	X48	Y48	Z48	X49	Y49	Z49	X50	Y50	Z50	X51	Y51	Z51	X52	Y52	Z52	X53	Y53	Z53	X54	Y54	Z54	X55	Y55	Z55	X56	Y56	Z56	X57	Y57	Z57	X58	Y58	Z58	X59	Y59	Z59	X60	Y60	Z60	X61	Y61	Z61	X62	Y62	Z62	X63	Y63	Z63	X64	Y64	Z64	X65	Y65	Z65	X66	Y66	Z66	X67	Y67	Z67	X68	Y68	Z68

438	2.19	-250.34	123.15	-107.58	9	2014	4	-715.9	1594.7	-76.047	-826.7	804.89	-277.87	-817.24	1087.7	-276.24	-788.28	20.513	28.767	-665.78	1399.6	-180.72	-836.63	19.312	106.95	-735.81	17.134	71.477	-742.21	1209.3	-248.67	-809.12	262.87	93.462	-760.93	770.64	-269.53	-995.29	42.99	0.70251	-838.47	948.03	-280.75	-840.76	183.7	16.071	-800.07	261.25	20.204	-635.41	923.27	289.34	-312.59	68.882	-156.23	-515	825.09	243.15	-906.91	70.447	-15.115	-742.75	1463.8	-5.7574	-641.12	1012.7	-159.61	-753.82	498.63	114.25	-487.58	321.05	-152.43	-831.77	1026.7	-46.32	-589.07	512.98	-153.23	-414.87	93.273	-59.435	-740.18	1070.1	217.57	-598.14	569.73	-164.76	-663.19	1037	147.97	-836.67	1032.1	22.033	-719.64	919.52	-108.11	-743.19	1027.1	-8.9819	-652.16	1024.8	-5.8203	-652.16	1024.8	-5.8203	-734.65	936.05	101.05	-834.22	1029.4	-12.143	-572.39	1023.1	0.044564	-649.94	1104.6	-11.962	-657.86	1031.1	73.728	-481.69	24.954	-83.722	-695.85	1074.3	294.67	-539.24	1636	-53.521	-746.12	546.69	121.08	-522.11	806.14	270.18	-815.02	1208.8	0.78342	-709.78	1590.6	60.572	-282.11	87.777	-83.151	-780.43	474.56	-10.789	-767.12	486.6	51.733	-436.84	72.856	-138.03	-532.36	852.77	221.15	-938.95	74.762	61.451	-640.32	1236.9	237.46	-536.04	1635.3	21.116	-622.65	1413.3	141.75	-585.07	483.53	-24.268	-587.07	498.26	-88.75	-623.27	660.3	-180.46	-728.1	731.68	163.17	-649.74	749.52	-191.57	-558.22	659.67	-213.16	-493.49	413.93	-80.722	-470.27	324.24	-82.859	-445.3	234.93	-86.628	-734.4	637.48	144.04	-757.38	349.76	26.284	-668.68	637.53	109.05
439	2.195	-248.03	119.89	-107.36	9	2014	4	-710.84	1594.1	-76.807	-821.83	804.29	-278.53	-812.17	1087.1	-276.94	-788.33	20.411	28.912	-660.72	1399	-181.43	-836.76	19.207	107	-735.82	17.128	71.457	-737.18	1208.7	-249.38	-807.56	262.66	93.282	-756.12	769.99	-270.06	-995.22	43.837	0.87377	-833.48	947.43	-281.49	-839.82	183.69	15.979	-798.59	261.03	19.984	-630.78	922.67	288.58	-311.02	66.407	-155.96	-515.89	823.56	243.62	-906.73	70.921	-15.072	-737.73	1463.2	-6.4922	-635.94	1012	-160.16	-750.77	498.16	113.87	-483.33	319.95	-151.89	-826.58	1026.2	-46.988	-583.13	512.66	-153.08	-412.69	91.634	-58.75	-735.62	1069.6	217.25	-591.43	570.12	-164.82	-658.29	1036.5	147.52	-831.55	1031.7	21.386	-714.58	918.88	-108.66	-738.09	1026.6	-9.5593	-647.11	1024.3	-6.3171	-647.11	1024.3	-6.3171	-729.78	935.54	100.57	-829.06	1028.9	-12.801	-567.35	1022.5	-0.37955	-644.85	1104	-12.5	-652.89	1030.6	73.222	-480.34	24.567	-83.018	-691.11	1073.7	293.82	-534.21	1635.5	-54.15	-742.8	546.17	120.66	-517.56	805.44	269.54	-809.87	1208.2	0.086981	-704.8	1590.1	59.833	-279.94	84.746	-83.013	-777.5	474.16	-11.128	-764.14	486.16	51.372	-434.95	71.632	-137.41	-527.72	852.11	220.51	-938.62	75.277	61.615	-635.47	1236.4	236.75	-531.06	1634.8	20.495	-617.66	1412.8	141.12	-579.04	483.58	-23.902	-581.08	498.12	-88.491	-616.84	660.55	-180.97	-723.91	731.15	162.56	-643.65	749.65	-192.34	-551.85	659.59	-213.67	-488.61	412.89	-80.258	-466.13	323.04	-82.318	-441.92	233.55	-85.984	-730.65	636.97	143.54	-755.45	348.94	25.962	-664.96	636.67	108.45
440	2.2	-245.88	116.42	-106.99	9	2014	4	-705.76	1593.6	-77.576	-816.86	803.7	-279.23	-807.04	1086.4	-277.66	-788.37	20.328	29.061	-655.64	1398.5	-182.15	-836.9	19.092	107.04	-735.83	17.122	71.436	-732.1	1208.1	-250.09	-805.97	262.49	93.091	-751.21	769.34	-270.63	-995.14	44.772	1.0382	-828.4	946.83	-282.25	-838.86	183.73	15.88	-797.08	260.86	19.73	-626.2	922.09	287.79	-309.64	63.831	-155.63	-517.51	821.9	244.08	-906.53	71.444	-15.014	-732.68	1462.6	-7.2408	-630.77	1011.4	-160.76	-747.66	497.71	113.46	-479.09	318.88	-151.29	-821.37	1025.7	-47.647	-577.21	512.38	-152.91	-410.71	89.944	-58.04	-731.04	1069	216.85	-584.75	570.52	-164.77	-653.4	1036.1	147.01	-826.4	1031.2	20.745	-709.53	918.28	-109.26	-732.99	1026.1	-10.163	-642.09	1023.7	-6.8753	-642.09	1023.7	-6.8753	-724.93	935.06	100.02	-823.89	1028.5	-13.451	-562.33	1021.9	-0.86195	-639.78	1103.5	-13.098	-647.94	1030.1	72.655	-479.26	24.291	-82.391	-686.41	1073.2	292.93	-529.17	1635	-54.794	-739.42	545.67	120.21	-513.09	804.75	268.9	-804.71	1207.7	-0.60499	-699.81	1589.6	59.081	-277.97	81.524	-82.801	-774.52	473.77	-11.486	-761.09	485.74	50.988	-433.23	70.443	-136.8	-523.14	851.44	219.87	-938.28	75.874	61.761	-630.64	1235.8	236.02	-526.06	1634.3	19.857	-612.64	1412.3	140.47	-573.04	483.66	-23.532	-575.12	498.02	-88.222	-610.36	660.84	-181.38	-719.68	730.63	161.92	-637.45	749.82	-193.04	-545.45	659.55	-214.09	-483.81	411.86	-79.7	-462.09	321.84	-81.703	-438.68	232.15	-85.283	-726.84	636.47	143.01	-753.49	348.1	25.622	-661.19	635.85	107.82
441	2.205	-243.84	112.8	-106.47	9	2014	4	-700.67	1593.2	-78.354	-811.79	803.1	-279.95	-801.84	1085.8	-278.39	-788.41	20.275	29.209	-650.53	1397.9	-182.89	-837.04	18.974	107.04	-735.84	17.117	71.415	-726.96	1207.5	-250.82	-804.33	262.37	92.889	-746.19	768.7	-271.22	-995.04	45.813	1.1947	-823.24	946.24	-283.05	-837.86	183.82	15.772	-795.52	260.75	19.453	-621.67	921.54	286.98	-308.39	61.2	-155.24	-519.69	820.12	244.51	-906.32	72.023	-14.941	-727.61	1462.1	-8.0027	-625.61	1010.8	-161.4	-744.47	497.27	113.02	-474.84	317.87	-150.65	-816.15	1025.3	-48.296	-571.34	512.13	-152.74	-408.89	88.241	-57.315	-726.45	1068.6	216.39	-578.17	570.93	-164.64	-648.54	1035.6	146.43	-821.24	1030.8	20.11	-704.5	917.72	-109.93	-727.88	1025.6	-10.791	-637.08	1023.2	-7.4896	-637.08	1023.2	-7.4896	-720.09	934.6	99.398	-818.69	1028.1	-14.093	-557.33	1021.3	-1.3977	-634.72	1102.9	-13.745	-643	1029.6	72.032	-478.36	24.147	-81.84	-681.73	1072.7	292.02	-524.12	1634.6	-55.455	-735.96	545.17	119.72	-508.69	804.07	268.25	-799.53	1207.2	-1.2933	-694.8	1589.1	58.317	-276.13	78.173	-82.513	-771.45	473.4	-11.863	-757.96	485.33	50.58	-431.61	69.317	-136.19	-518.63	850.79	219.23	-937.92	76.565	61.892	-625.8	1235.3	235.26	-521.05	1633.9	19.204	-607.59	1411.8	139.81	-567.14	483.78	-23.179	-569.24	497.95	-87.959	-603.91	661.15	-181.68	-715.42	730.12	161.24	-631.18	750.04	-193.65	-539.07	659.54	-214.42	-479.1	410.84	-79.059	-458.14	320.66	-81.023	-435.54	230.77	-84.537	-722.97	636	142.43	-751.51	347.24	25.263	-657.36	635.05	107.16
442	2.21	-241.87	109.1	-105.81	9	2014	4	-695.56	1592.7	-79.14	-806.62	802.52	-280.71	-796.57	1085.2	-279.12	-788.42	20.26	29.349	-645.4	1397.4	-183.64	-837.19	18.86	107.02	-735.86	17.111	71.392	-721.77	1207	-251.55	-802.63	262.29	92.679	-741.07	768.08	-271.83	-994.92	46.976	1.3429	-817.99	945.65	-283.86	-836.81	183.97	15.658	-793.9	260.68	19.16	-617.21	921.04	286.13	-307.21	58.557	-154.79	-522.27	818.28	244.9	-906.09	72.667	-14.851	-722.52	1461.6	-8.7774	-620.46	1010.2	-162.09	-741.18	496.85	112.55	-470.56	316.93	-149.98	-810.9	1024.9	-48.938	-565.55	511.91	-152.57	-407.15	86.562	-56.586	-721.85	1068.2	215.85	-571.73	571.31	-164.43	-643.69	1035.2	145.79	-816.07	1030.4	19.479	-699.47	917.2	-110.65	-722.78	1025.2	-11.441	-632.07	1022.7	-8.1528	-632.07	1022.7	-8.1528	-715.27	934.16	98.701	-813.49	1027.7	-14.729	-552.33	1020.8	-1.9798	-629.66	1102.4	-14.427	-638.07	1029.1	71.362	-477.57	24.148	-81.361	-677.08	1072.3	291.07	-519.05	1634.3	-56.13	-732.41	544.7	119.21	-504.37	803.42	267.6	-794.34	1206.7	-1.9786	-689.77	1588.7	57.542	-274.39	74.757	-82.15	-768.29	473.04	-12.257	-754.73	484.94	50.149	-430.01	68.275	-135.6	-514.19	850.14	218.6	-937.54	77.36	62.01	-620.97	1234.9	234.49	-516.02	1633.6	18.536	-602.52	1411.4	139.14	-561.37	483.91	-22.863	-563.46	497.91	-87.716	-597.53	661.46	-181.88	-711.12	729.64	160.53	-624.88	750.29	-194.16	-532.75	659.55	-214.65	-474.47	409.87	-78.354	-454.27	319.51	-80.293	-432.49	229.43	-83.757	-719.02	635.55	141.82	-749.48	346.36	24.89	-653.47	634.29	106.47
